<svg width="297" height="298" viewBox="0 0 297 298" fill="none" xmlns="http://www.w3.org/2000/svg">
<path d="M8.80294 197.413L197.28 8.93504" stroke="#C7C7C7"/>
<path d="M10.9269 202.508L202.508 10.9269" stroke="#C7C7C7"/>
<path d="M13.183 207.472L207.659 12.9961" stroke="#C7C7C7"/>
<path d="M15.439 212.886L212.886 15.439" stroke="#C7C7C7"/>
<path d="M18.1464 218.301L218.301 18.1464" stroke="#C7C7C7"/>
<path d="M20.8536 222.813L223 20.6668" stroke="#C7C7C7"/>
<path d="M23.561 227.512L227.512 23.561" stroke="#C7C7C7"/>
<path d="M26.7194 232.476L232.475 26.7195" stroke="#C7C7C7"/>
<path d="M29.8781 236.537L236.988 29.4269" stroke="#C7C7C7"/>
<path d="M33.0366 241.049L241.5 32.5853" stroke="#C7C7C7"/>
<path d="M37.0975 245.561L245.561 37.0976" stroke="#C7C7C7"/>
<path d="M40.7073 250.073L250.073 40.7073" stroke="#C7C7C7"/>
<path d="M44.7683 254.134L254.134 44.7682" stroke="#C7C7C7"/>
<path d="M49.2804 258.646L258.646 49.2805" stroke="#C7C7C7"/>
<path d="M52.439 261.805L261.805 52.4391" stroke="#C7C7C7"/>
<path d="M284.366 90.5283L89.8903 285.004" stroke="#C7C7C7"/>
<path d="M282.11 85.1138L84.6625 282.561" stroke="#C7C7C7"/>
<path d="M279.402 79.6991L79.2479 279.854" stroke="#C7C7C7"/>
<path d="M276.695 75.1869L74.5487 277.333" stroke="#C7C7C7"/>
<path d="M273.988 70.4878L70.0366 274.439" stroke="#C7C7C7"/>
<path d="M270.829 65.5244L65.0732 271.28" stroke="#C7C7C7"/>
<path d="M267.671 61.4634L60.561 268.573" stroke="#C7C7C7"/>
<path d="M264.512 56.9512L56.0488 265.415" stroke="#C7C7C7"/>
<path d="M7.13024 191.866L191.998 6.99793" stroke="#C7C7C7"/>
<path d="M5.51227 186.451L186.451 5.51218" stroke="#C7C7C7"/>
<path d="M4.42289 181.036L181.037 4.42281" stroke="#C7C7C7"/>
<path d="M3.52043 175.622L175.886 3.25596" stroke="#C7C7C7"/>
<path d="M2.35364 169.756L169.756 2.35368" stroke="#C7C7C7"/>
<path d="M1.45117 163.439L162.988 1.90251" stroke="#C7C7C7"/>
<path d="M1 157.122L157.122 1" stroke="#C7C7C7"/>
<path d="M1 149.902L149.902 0.999917" stroke="#C7C7C7"/>
<path d="M1 142.683L142.683 0.999933" stroke="#C7C7C7"/>
<path d="M1.45117 135.012L135.012 1.45114" stroke="#C7C7C7"/>
<path d="M1.90247 127.793L127.341 2.35359" stroke="#C7C7C7"/>
<path d="M4.15857 118.317L118.317 4.15862" stroke="#C7C7C7"/>
<path d="M6.41461 109.293L108.841 6.86591" stroke="#C7C7C7"/>
<path d="M8.67072 100.719L100.268 9.12195" stroke="#C7C7C7"/>
<path d="M12.2805 91.2439L90.7926 12.7317" stroke="#C7C7C7"/>
<path d="M18.1464 79.5122L79.061 18.5976" stroke="#C7C7C7"/>
<path d="M27.1708 65.0731L65.5244 26.7195" stroke="#C7C7C7"/>
<path d="M35.2927 51.5366L48.378 38.4513" stroke="#C7C7C7"/>
<line x1="288.329" y1="100.622" x2="100.622" y2="288.329" stroke="#C7C7C7"/>
<path d="M286.809 94.8536L94.5893 287.073" stroke="#C7C7C7"/>
<path d="M289.967 106.134L105.1 291.002" stroke="#C7C7C7"/>
<path d="M291.585 111.549L110.646 292.488" stroke="#C7C7C7"/>
<path d="M292.675 116.963L116.061 293.577" stroke="#C7C7C7"/>
<path d="M293.577 122.378L121.211 294.744" stroke="#C7C7C7"/>
<path d="M294.744 128.244L127.341 295.646" stroke="#C7C7C7"/>
<path d="M295.646 134.561L134.11 296.098" stroke="#C7C7C7"/>
<path d="M296.098 140.878L139.976 297" stroke="#C7C7C7"/>
<path d="M296.098 148.098L147.195 297" stroke="#C7C7C7"/>
<path d="M296.098 155.317L154.415 297" stroke="#C7C7C7"/>
<path d="M295.646 162.988L162.085 296.549" stroke="#C7C7C7"/>
<path d="M295.195 170.207L169.756 295.646" stroke="#C7C7C7"/>
<path d="M292.939 179.683L178.78 293.841" stroke="#C7C7C7"/>
<path d="M290.683 188.707L188.256 291.134" stroke="#C7C7C7"/>
<path d="M288.427 197.281L196.829 288.878" stroke="#C7C7C7"/>
<path d="M284.817 206.756L206.305 285.268" stroke="#C7C7C7"/>
<path d="M278.951 218.488L218.037 279.402" stroke="#C7C7C7"/>
<path d="M269.927 232.927L231.573 271.28" stroke="#C7C7C7"/>
<path d="M261.805 246.463L248.72 259.549" stroke="#C7C7C7"/>
</svg>
