<svg width="46" height="46" viewBox="0 0 46 46" fill="none" xmlns="http://www.w3.org/2000/svg">
<path d="M41.4629 12.7398C40.8608 11.3456 39.9925 10.0822 38.9068 9.02031C37.8203 7.95524 36.5393 7.10885 35.1334 6.52715C33.6756 5.92157 32.112 5.6116 30.5334 5.61524C28.3188 5.61524 26.158 6.22168 24.2803 7.36719C23.8311 7.64121 23.4043 7.94219 23 8.27012C22.5957 7.94219 22.1689 7.64121 21.7197 7.36719C19.842 6.22168 17.6812 5.61524 15.4666 5.61524C13.8719 5.61524 12.3266 5.9207 10.8666 6.52715C9.45605 7.11113 8.18477 7.95117 7.09316 9.02031C6.00604 10.081 5.13762 11.3447 4.53711 12.7398C3.9127 14.1908 3.59375 15.7316 3.59375 17.3174C3.59375 18.8133 3.89922 20.3721 4.50566 21.9578C5.01328 23.283 5.74102 24.6576 6.6709 26.0457C8.14434 28.2424 10.1703 30.5334 12.6859 32.8559C16.8547 36.7057 20.983 39.365 21.1582 39.4729L22.2229 40.1557C22.6945 40.4566 23.301 40.4566 23.7727 40.1557L24.8373 39.4729C25.0125 39.3605 29.1363 36.7057 33.3096 32.8559C35.8252 30.5334 37.8512 28.2424 39.3246 26.0457C40.2545 24.6576 40.9867 23.283 41.4898 21.9578C42.0963 20.3721 42.4018 18.8133 42.4018 17.3174C42.4062 15.7316 42.0873 14.1908 41.4629 12.7398Z" fill="#FF6767"/>
</svg>
