<svg width="50" height="50" viewBox="0 0 50 50" fill="none" xmlns="http://www.w3.org/2000/svg">
<path d="M15.625 4.6875C15.625 4.2731 15.7896 3.87567 16.0826 3.58265C16.3757 3.28962 16.7731 3.125 17.1875 3.125H29.6875C30.1019 3.125 30.4993 3.28962 30.7924 3.58265C31.0854 3.87567 31.25 4.2731 31.25 4.6875C31.25 5.1019 31.0854 5.49933 30.7924 5.79235C30.4993 6.08538 30.1019 6.25 29.6875 6.25H17.1875C16.7731 6.25 16.3757 6.08538 16.0826 5.79235C15.7896 5.49933 15.625 5.1019 15.625 4.6875Z" fill="white"/>
<path d="M23.4375 15.625C23.0231 15.625 22.6257 15.7896 22.3326 16.0826C22.0396 16.3757 21.875 16.7731 21.875 17.1875V29.6875C21.875 30.1019 22.0396 30.4993 22.3326 30.7924C22.6257 31.0854 23.0231 31.25 23.4375 31.25C23.8519 31.25 24.2493 31.0854 24.5424 30.7924C24.8354 30.4993 25 30.1019 25 29.6875V17.1875C25 16.7731 24.8354 16.3757 24.5424 16.0826C24.2493 15.7896 23.8519 15.625 23.4375 15.625Z" fill="white"/>
<path d="M42.1875 28.125C42.1875 33.0978 40.2121 37.8669 36.6958 41.3833C33.1794 44.8996 28.4103 46.875 23.4375 46.875C18.4647 46.875 13.6956 44.8996 10.1792 41.3833C6.66294 37.8669 4.6875 33.0978 4.6875 28.125C4.6875 23.1522 6.66294 18.3831 10.1792 14.8667C13.6956 11.3504 18.4647 9.375 23.4375 9.375C28.4103 9.375 33.1794 11.3504 36.6958 14.8667C40.2121 18.3831 42.1875 23.1522 42.1875 28.125V28.125ZM39.0625 28.125C39.0625 23.981 37.4163 20.0067 34.486 17.0765C31.5558 14.1462 27.5815 12.5 23.4375 12.5C19.2935 12.5 15.3192 14.1462 12.389 17.0765C9.4587 20.0067 7.8125 23.981 7.8125 28.125C7.8125 32.269 9.4587 36.2433 12.389 39.1735C15.3192 42.1038 19.2935 43.75 23.4375 43.75C27.5815 43.75 31.5558 42.1038 34.486 39.1735C37.4163 36.2433 39.0625 32.269 39.0625 28.125Z" fill="white"/>
<path d="M38.9156 8.25623C38.7715 8.107 38.5991 7.98796 38.4084 7.90607C38.2178 7.82419 38.0128 7.78108 37.8053 7.77928C37.5978 7.77748 37.3921 7.81701 37.2001 7.89557C37.008 7.97414 36.8336 8.09016 36.6869 8.23687C36.5402 8.38357 36.4242 8.55803 36.3456 8.75006C36.267 8.94208 36.2275 9.14783 36.2293 9.3553C36.2311 9.56276 36.2742 9.7678 36.3561 9.95843C36.438 10.1491 36.557 10.3215 36.7062 10.4656L41.0906 14.85C41.2348 14.9992 41.4072 15.1183 41.5978 15.2001C41.7884 15.282 41.9935 15.3251 42.2009 15.3269C42.4084 15.3287 42.6141 15.2892 42.8062 15.2106C42.9982 15.1321 43.1727 15.0161 43.3194 14.8693C43.4661 14.7226 43.5821 14.5482 43.6607 14.3562C43.7392 14.1641 43.7787 13.9584 43.7769 13.7509C43.7751 13.5435 43.732 13.3384 43.6502 13.1478C43.5683 12.9572 43.4492 12.7847 43.3 12.6406L38.9156 8.25623Z" fill="white"/>
</svg>
